<?xml version="1.0" encoding="utf-8"?>
<!-- Generator: Adobe Illustrator 21.1.0, SVG Export Plug-In . SVG Version: 6.00 Build 0)  -->
<svg version="1.1" id="Layer_1" xmlns="http://www.w3.org/2000/svg" xmlns:xlink="http://www.w3.org/1999/xlink" x="0px" y="0px"
	 viewBox="0 0 353 346" style="enable-background:new 0 0 353 346;" xml:space="preserve">
<style type="text/css">
	.st0{fill:none;stroke:#000000;stroke-miterlimit:10;}
	.st1{fill:#F2F2F2;stroke:#000000;stroke-miterlimit:10;}
	.st2{fill:#AAAAAA;stroke:#000000;stroke-miterlimit:10;}
	.st3{stroke:#000000;stroke-miterlimit:10;}
	.st4{stroke:#FFFFFF;stroke-miterlimit:10;}
</style>
<g>
	<g>
		<polygon class="st0" points="119.1,167.8 189.9,45.1 48.3,45.1 		"/>
		<polygon class="st0" points="223.1,4.8 176.5,85.5 269.7,85.5 		"/>
		<polygon class="st1" points="63.1,86.8 16.5,167.5 109.7,167.5 		"/>
		<polygon class="st0" points="144.6,214.4 168.8,172.4 120.3,172.4 		"/>
		<polygon class="st2" points="29.2,196.8 43.3,172.4 15.1,172.4 		"/>
		<polygon class="st0" points="104.4,315.3 150.8,234.9 58,234.9 		"/>
		<polygon class="st0" points="119.1,341.2 133.6,316.1 104.6,316.1 		"/>
		<polygon class="st0" points="178.7,275.4 155.5,315.6 201.9,315.6 		"/>
		<polygon class="st0" points="20.8,292.2 7.4,315.5 34.3,315.5 		"/>
	</g>
	<g>
		<polygon class="st3" points="223.1,38.9 100.9,250.6 345.3,250.6 		"/>
		<polygon class="st4" points="220.3,201.7 169.8,289.3 270.9,289.3 		"/>
	</g>
</g>
</svg>
