<?xml version="1.0" encoding="utf-8"?>
<!-- Generator: Adobe Illustrator 21.1.0, SVG Export Plug-In . SVG Version: 6.00 Build 0)  -->
<svg version="1.1" id="Layer_1" xmlns="http://www.w3.org/2000/svg" xmlns:xlink="http://www.w3.org/1999/xlink" x="0px" y="0px"
	 viewBox="0 0 388 330" style="enable-background:new 0 0 388 330;" xml:space="preserve">
<style type="text/css">
	.st0{fill:none;stroke:#000000;stroke-miterlimit:10;}
	.st1{fill:#F2F2F2;stroke:#000000;stroke-miterlimit:10;}
	.st2{fill:#AAAAAA;stroke:#000000;stroke-miterlimit:10;}
	.st3{stroke:#000000;stroke-miterlimit:10;}
	.st4{stroke:#FFFFFF;stroke-miterlimit:10;}
</style>
<g>
	<g>
		<path class="st0" d="M179.4,10.6 117.4,114.7 241.4,114.7z"/>
		<path class="st0" d="M294.3,47.3 206.5,194.6 382.1,194.6z"/>
		<path class="st1" d="M129.2,298.1 190.8,194.6 67.6,194.6z"/>
		<path class="st0" d="M78.3,171.1 108.1,121 48.4,121z"/>
		<path class="st0" d="M61.4,204.6 79.9,173.6 42.9,173.6z"/>
		<path class="st0" d="M109.2,323.6 125.5,296.3 93,296.3z"/>
		<path class="st2" d="M247.9,283.5 231.6,310.8 264.2,310.8z"/>
		<path class="st2" d="M36.3,245.5 6.7,295.2 65.9,295.2z"/>
	</g>
	<g>
		<polygon class="st3" d="M235.5,10.6 95.5,245.5 375.5,245.5z"/>
		<polygon class="st4" d="M232.4,191.3 174.5,288.5 290.3,288.5z"/>
	</g>
</g>
</svg>
